<svg id="Layer_1" data-name="Layer 1" xmlns="http://www.w3.org/2000/svg" viewBox="0 0 775.5 188.75"><defs><style>.cls-1{fill:#666;}.cls-2,.cls-5{fill:#3fa382;}.cls-3{fill:none;stroke:#29c4f4;stroke-width:9.61px;}.cls-3,.cls-4,.cls-5{stroke-miterlimit:10;}.cls-4{fill:#f58220;stroke:#f58220;stroke-width:4px;}.cls-5{stroke:#3fa382;stroke-width:4.01px;}</style></defs><path d="M362.07,441.79"/><path class="cls-1" d="M185,126.93a60.87,60.87,0,0,1-11.08-1,45.9,45.9,0,0,1-9.72-2.87,41.75,41.75,0,0,1-8.47-4.78l7.06-7.46A33.3,33.3,0,0,0,172.94,116,40.76,40.76,0,0,0,185,117.75q8.77,0,13.6-2.82c3.22-1.88,4.83-4.52,4.83-7.89V107a7.59,7.59,0,0,0-2.44-6.08,15.83,15.83,0,0,0-6.41-3.13,81.67,81.67,0,0,0-8.69-1.7q-4.56-.66-9.19-1.58a33.16,33.16,0,0,1-8.53-2.84,15.61,15.61,0,0,1-6.24-5.57q-2.37-3.65-2.36-9.71v0q0-9.7,7.49-15T188.21,56a45.56,45.56,0,0,1,12.72,1.79A47.7,47.7,0,0,1,213,63.23L206.59,71a38.48,38.48,0,0,0-9.19-4.4,30.79,30.79,0,0,0-9.19-1.43q-8.28,0-12.86,2.84A9,9,0,0,0,170.77,76v0a7.08,7.08,0,0,0,2.67,6,17.79,17.79,0,0,0,7,3q4.31,1,9.24,1.84c3,.51,5.93,1.12,8.89,1.84a31.85,31.85,0,0,1,8.08,3.11,15.81,15.81,0,0,1,5.83,5.57,17.35,17.35,0,0,1,2.19,9.23v.1a16.94,16.94,0,0,1-7.77,14.87Q199.09,126.94,185,126.93Z"/><path class="cls-1" d="M264,102.59l23.72-45.92h10.6v69.54h-11V74.13l.56,3.06L267.9,116.55H260l-19.88-38.4.56-4v52.08H229.64V56.67h10.6Z"/><path class="cls-1" d="M309.38,126.21l29.76-69.54h9.67l29.76,69.54H366.35L344,70.11l-22.37,56.1ZM323.09,111v-9.28h42.49V111Z"/><path class="cls-1" d="M390.79,126.21V56.63h11.33v69.58Zm4.94-29.41V87.52h27.54a10.8,10.8,0,0,0,7.94-3,10.54,10.54,0,0,0,3-7.85,10.54,10.54,0,0,0-3-7.84,10.77,10.77,0,0,0-7.94-3H395.73V56.63h27.1a28.34,28.34,0,0,1,12.33,2.51,19.55,19.55,0,0,1,8.19,7,19,19,0,0,1,2.91,10.57,18.91,18.91,0,0,1-2.94,10.55,19.6,19.6,0,0,1-8.19,7,28.28,28.28,0,0,1-12.3,2.51Zm40.48,29.41L417.72,94.65,429,92.45l20.66,33.76Z"/><path class="cls-1" d="M453.82,66V56.67h57V66Zm22.82,60.26V62.37H488v63.84Z"/><path class="cls-2" d="M543.94,126.93a61,61,0,0,1-11.08-1,45.64,45.64,0,0,1-9.71-2.87,41.75,41.75,0,0,1-8.47-4.78l7.05-7.46A33.3,33.3,0,0,0,531.89,116a40.76,40.76,0,0,0,12.05,1.72q8.77,0,13.61-2.82c3.22-1.88,4.83-4.52,4.83-7.89V107a7.62,7.62,0,0,0-2.44-6.08,15.81,15.81,0,0,0-6.42-3.13,81.18,81.18,0,0,0-8.69-1.7c-3-.44-6.1-1-9.19-1.58a33.22,33.22,0,0,1-8.52-2.84,15.63,15.63,0,0,1-6.25-5.57q-2.36-3.65-2.36-9.71v0q0-9.7,7.5-15T547.16,56a45.5,45.5,0,0,1,12.72,1.79A47.76,47.76,0,0,1,572,63.23L565.54,71a38.3,38.3,0,0,0-9.19-4.4,30.74,30.74,0,0,0-9.19-1.43q-8.26,0-12.85,2.84A9,9,0,0,0,529.73,76v0a7.1,7.1,0,0,0,2.66,6,17.86,17.86,0,0,0,7,3q4.3,1,9.25,1.84,4.44.76,8.88,1.84a31.71,31.71,0,0,1,8.08,3.11,15.74,15.74,0,0,1,5.83,5.57,17.25,17.25,0,0,1,2.2,9.23v.1a16.94,16.94,0,0,1-7.78,14.87Q558.05,126.94,543.94,126.93Z"/><path class="cls-2" d="M614.19,126.93a33.14,33.14,0,0,1-14.94-3.18,23.64,23.64,0,0,1-9.91-9,25.38,25.38,0,0,1-3.53-13.48V81.59a25.38,25.38,0,0,1,3.53-13.51,23.7,23.7,0,0,1,9.91-8.94,36.68,36.68,0,0,1,29.88,0A23.76,23.76,0,0,1,639,68.08a25.38,25.38,0,0,1,3.53,13.51V101.3A25.38,25.38,0,0,1,639,114.78a23.7,23.7,0,0,1-9.91,9A33.14,33.14,0,0,1,614.19,126.93Zm0-9.61q7.6,0,12.19-4.31A14.89,14.89,0,0,0,631,101.63V81.26q0-7.12-4.58-11.41t-12.19-4.28q-7.55,0-12.16,4.28t-4.61,11.41v20.37A14.84,14.84,0,0,0,602,113Q606.64,117.32,614.19,117.32Z"/><path class="cls-2" d="M659.78,126.21V56.67h11.33v69.54ZM665.33,66V56.67h45.26V66Zm0,31V87.67h39.15v9.27Z"/><path class="cls-2" d="M718.37,66V56.67h57V66Zm22.82,60.26V62.37h11.33v63.84Z"/><path class="cls-1" d="M438.19,149.66v11c0,4.17,1.86,5.94,4.35,5.94,2.76,0,4.53-1.82,4.53-5.94v-11h2.44v10.87c0,5.73-3,8.08-7.06,8.08-3.81,0-6.69-2.19-6.69-8v-11Z"/><path class="cls-1" d="M453.6,158.54c0-1.38,0-2.52-.11-3.63h2.16l.14,2.22h0a5,5,0,0,1,4.43-2.52c1.85,0,4.73,1.11,4.73,5.7v8h-2.43v-7.71c0-2.16-.81-4-3.1-4a3.46,3.46,0,0,0-3.27,2.49,3.5,3.5,0,0,0-.16,1.13v8.05H453.6Z"/><path class="cls-1" d="M469,148.66h2.43V168.3H469Z"/><path class="cls-1" d="M476.84,162.05c.06,3.29,2.16,4.65,4.59,4.65a8.75,8.75,0,0,0,3.71-.69l.41,1.74a10.75,10.75,0,0,1-4.45.83c-4.12,0-6.58-2.71-6.58-6.75s2.38-7.22,6.28-7.22c4.37,0,5.53,3.85,5.53,6.31a11.08,11.08,0,0,1-.08,1.13Zm7.14-1.74c0-1.55-.64-4-3.38-4-2.46,0-3.54,2.27-3.73,4Z"/><path class="cls-1" d="M496.76,168.3l-.19-1.68h-.09a5,5,0,0,1-4.09,2,3.82,3.82,0,0,1-4.1-3.85c0-3.23,2.88-5,8-5v-.27a2.76,2.76,0,0,0-3-3.1,6.65,6.65,0,0,0-3.48,1l-.56-1.61a8.31,8.31,0,0,1,4.4-1.19c4.09,0,5.09,2.8,5.09,5.48v5a19.37,19.37,0,0,0,.22,3.2Zm-.36-6.83c-2.66-.05-5.67.42-5.67,3a2.15,2.15,0,0,0,2.29,2.32,3.34,3.34,0,0,0,3.24-2.24,2.67,2.67,0,0,0,.14-.77Z"/><path class="cls-1" d="M502.35,165.81a6.38,6.38,0,0,0,3.21,1c1.77,0,2.6-.88,2.6-2s-.7-1.8-2.49-2.46c-2.41-.86-3.55-2.19-3.55-3.79,0-2.16,1.75-3.93,4.62-3.93a6.74,6.74,0,0,1,3.3.83l-.61,1.77a5.27,5.27,0,0,0-2.74-.77c-1.44,0-2.24.83-2.24,1.82s.8,1.61,2.54,2.27c2.33.89,3.52,2.05,3.52,4,0,2.35-1.83,4-5,4a7.65,7.65,0,0,1-3.76-.91Z"/><path class="cls-1" d="M513.63,148.66h2.44V157h0a4.59,4.59,0,0,1,1.75-1.72,5,5,0,0,1,2.49-.69c1.79,0,4.67,1.11,4.67,5.73v8H522.6v-7.69c0-2.15-.81-4-3.1-4a3.52,3.52,0,0,0-3.27,2.43,3.19,3.19,0,0,0-.16,1.17v8.07h-2.44Z"/><path class="cls-1" d="M531.7,151.15a1.51,1.51,0,0,1-3,0,1.48,1.48,0,0,1,1.52-1.52A1.44,1.44,0,0,1,531.7,151.15ZM529,168.3V154.91h2.43V168.3Z"/><path class="cls-1" d="M535.46,158.54c0-1.38,0-2.52-.11-3.63h2.16l.14,2.22h.05a4.92,4.92,0,0,1,4.43-2.52c1.85,0,4.73,1.11,4.73,5.7v8h-2.44v-7.71c0-2.16-.8-4-3.09-4a3.46,3.46,0,0,0-3.27,2.49,3.5,3.5,0,0,0-.16,1.13v8.05h-2.44Z"/><path class="cls-1" d="M562.35,154.91c-.06,1-.11,2.05-.11,3.68v7.78c0,3.07-.61,4.95-1.91,6.11a7.09,7.09,0,0,1-4.87,1.61A8.64,8.64,0,0,1,551,173l.61-1.85a7.53,7.53,0,0,0,3.92,1.05c2.49,0,4.32-1.3,4.32-4.68V166h-.05a4.8,4.8,0,0,1-4.27,2.24c-3.31,0-5.69-2.82-5.69-6.53,0-4.54,3-7.11,6-7.11a4.45,4.45,0,0,1,4.17,2.32h.06l.11-2Zm-2.52,5.29a3.22,3.22,0,0,0-.14-1.11,3.5,3.5,0,0,0-3.4-2.57c-2.32,0-4,2-4,5.06,0,2.63,1.33,4.82,4,4.82a3.58,3.58,0,0,0,3.38-2.49,4.22,4.22,0,0,0,.19-1.3Z"/><path class="cls-1" d="M572.23,149.91a23.35,23.35,0,0,1,4.39-.39c2.41,0,4,.42,5.12,1.36a3.9,3.9,0,0,1,1.55,3.29,4.42,4.42,0,0,1-3.15,4.09v.06A4.8,4.8,0,0,1,584,163a5,5,0,0,1-1.57,3.74c-1.3,1.19-3.41,1.74-6.45,1.74a28.19,28.19,0,0,1-3.73-.22Zm2.4,7.63h2.19c2.54,0,4-1.32,4-3.12,0-2.19-1.66-3-4.1-3a10.52,10.52,0,0,0-2.13.17Zm0,8.94a13.24,13.24,0,0,0,2,.11c2.49,0,4.79-.91,4.79-3.62,0-2.55-2.19-3.6-4.82-3.6h-2Z"/><path class="cls-1" d="M598.34,164.65c0,1.39,0,2.6.11,3.65h-2.16l-.14-2.18h0a5,5,0,0,1-4.43,2.49c-2.1,0-4.62-1.16-4.62-5.87v-7.83h2.44v7.42c0,2.54.77,4.26,3,4.26a3.52,3.52,0,0,0,3.2-2.21,3.56,3.56,0,0,0,.23-1.25v-8.22h2.43Z"/><path class="cls-1" d="M602.05,165.81a6.38,6.38,0,0,0,3.21,1c1.77,0,2.6-.88,2.6-2s-.69-1.8-2.49-2.46c-2.41-.86-3.54-2.19-3.54-3.79,0-2.16,1.74-3.93,4.62-3.93a6.73,6.73,0,0,1,3.29.83l-.61,1.77a5.24,5.24,0,0,0-2.74-.77c-1.44,0-2.24.83-2.24,1.82s.8,1.61,2.54,2.27c2.33.89,3.52,2.05,3.52,4,0,2.35-1.83,4-5,4a7.65,7.65,0,0,1-3.76-.91Z"/><path class="cls-1" d="M616.05,151.15a1.51,1.51,0,0,1-3,0,1.48,1.48,0,0,1,1.52-1.52A1.45,1.45,0,0,1,616.05,151.15Zm-2.72,17.15V154.91h2.44V168.3Z"/><path class="cls-1" d="M619.81,158.54c0-1.38,0-2.52-.11-3.63h2.15l.14,2.22h.06a4.92,4.92,0,0,1,4.42-2.52c1.86,0,4.73,1.11,4.73,5.7v8h-2.43v-7.71c0-2.16-.8-4-3.1-4a3.45,3.45,0,0,0-3.26,2.49,3.49,3.49,0,0,0-.17,1.13v8.05h-2.43Z"/><path class="cls-1" d="M636.52,162.05c.05,3.29,2.15,4.65,4.59,4.65a8.81,8.81,0,0,0,3.71-.69l.41,1.74a10.79,10.79,0,0,1-4.45.83c-4.13,0-6.59-2.71-6.59-6.75s2.38-7.22,6.28-7.22c4.37,0,5.54,3.85,5.54,6.31a8.39,8.39,0,0,1-.09,1.13Zm7.13-1.74c0-1.55-.63-4-3.37-4-2.46,0-3.54,2.27-3.74,4Z"/><path class="cls-1" d="M648.69,165.81a6.38,6.38,0,0,0,3.21,1c1.77,0,2.6-.88,2.6-2s-.69-1.8-2.49-2.46c-2.41-.86-3.54-2.19-3.54-3.79,0-2.16,1.74-3.93,4.62-3.93a6.73,6.73,0,0,1,3.29.83l-.61,1.77a5.24,5.24,0,0,0-2.74-.77c-1.44,0-2.24.83-2.24,1.82s.8,1.61,2.55,2.27c2.32.89,3.51,2.05,3.51,4,0,2.35-1.83,4-5,4a7.68,7.68,0,0,1-3.76-.91Z"/><path class="cls-1" d="M659.64,165.81a6.41,6.41,0,0,0,3.21,1c1.77,0,2.6-.88,2.6-2s-.69-1.8-2.49-2.46c-2.4-.86-3.54-2.19-3.54-3.79,0-2.16,1.74-3.93,4.62-3.93a6.67,6.67,0,0,1,3.29.83l-.6,1.77a5.27,5.27,0,0,0-2.74-.77c-1.44,0-2.24.83-2.24,1.82s.8,1.61,2.54,2.27c2.32.89,3.51,2.05,3.51,4,0,2.35-1.82,4-5,4a7.72,7.72,0,0,1-3.77-.91Z"/><path class="cls-1" d="M676.88,149.88a28.24,28.24,0,0,1,4.62-.36,7.65,7.65,0,0,1,5.23,1.55,5,5,0,0,1,1.63,3.9,5.47,5.47,0,0,1-1.44,4,7.71,7.71,0,0,1-5.7,2.05,8.24,8.24,0,0,1-1.94-.17v7.47h-2.4Zm2.4,9a8.06,8.06,0,0,0,2,.19c2.9,0,4.67-1.41,4.67-4s-1.74-3.65-4.4-3.65a10.26,10.26,0,0,0-2.27.19Z"/><path class="cls-1" d="M702.94,161.5c0,4.95-3.43,7.11-6.67,7.11-3.62,0-6.42-2.66-6.42-6.89,0-4.48,2.93-7.11,6.64-7.11S702.94,157.41,702.94,161.5Zm-10.62.14c0,2.93,1.68,5.14,4.06,5.14s4.07-2.18,4.07-5.2c0-2.27-1.14-5.14-4-5.14S692.32,159.09,692.32,161.64Z"/><path class="cls-1" d="M708.94,151.07v3.84h3.49v1.86h-3.49V164c0,1.66.47,2.6,1.83,2.6a5.15,5.15,0,0,0,1.41-.17l.11,1.83a6.06,6.06,0,0,1-2.16.33,3.39,3.39,0,0,1-2.63-1,5,5,0,0,1-.94-3.49v-7.3h-2.07v-1.86h2.07v-3.2Z"/><path class="cls-1" d="M716.36,162.05c0,3.29,2.15,4.65,4.59,4.65a8.73,8.73,0,0,0,3.7-.69l.42,1.74a10.79,10.79,0,0,1-4.45.83c-4.13,0-6.59-2.71-6.59-6.75s2.38-7.22,6.28-7.22c4.37,0,5.53,3.85,5.53,6.31a8.76,8.76,0,0,1-.08,1.13Zm7.13-1.74c0-1.55-.63-4-3.37-4-2.47,0-3.54,2.27-3.74,4Z"/><path class="cls-1" d="M728.86,158.54c0-1.38,0-2.52-.11-3.63h2.16l.13,2.22h.06a4.92,4.92,0,0,1,4.43-2.52c1.85,0,4.73,1.11,4.73,5.7v8h-2.44v-7.71c0-2.16-.8-4-3.1-4a3.45,3.45,0,0,0-3.26,2.49,3.49,3.49,0,0,0-.17,1.13v8.05h-2.43Z"/><path class="cls-1" d="M747,151.07v3.84h3.49v1.86H747V164c0,1.66.47,2.6,1.83,2.6a5,5,0,0,0,1.41-.17l.11,1.83a6.06,6.06,0,0,1-2.16.33,3.37,3.37,0,0,1-2.62-1,4.93,4.93,0,0,1-1-3.49v-7.3h-2.07v-1.86h2.07v-3.2Z"/><path class="cls-1" d="M756,151.15a1.51,1.51,0,0,1-3,0,1.48,1.48,0,0,1,1.53-1.52A1.44,1.44,0,0,1,756,151.15Zm-2.71,17.15V154.91h2.43V168.3Z"/><path class="cls-1" d="M767.15,168.3l-.2-1.68h-.08a5,5,0,0,1-4.1,2,3.81,3.81,0,0,1-4.09-3.85c0-3.23,2.88-5,8.05-5v-.27a2.76,2.76,0,0,0-3-3.1,6.66,6.66,0,0,0-3.49,1l-.55-1.61a8.28,8.28,0,0,1,4.4-1.19c4.09,0,5.09,2.8,5.09,5.48v5a18.34,18.34,0,0,0,.22,3.2Zm-.36-6.83c-2.66-.05-5.68.42-5.68,3a2.16,2.16,0,0,0,2.3,2.32,3.35,3.35,0,0,0,3.24-2.24,2.67,2.67,0,0,0,.14-.77Z"/><path class="cls-1" d="M773.07,148.66h2.43V168.3h-2.43Z"/><path class="cls-3" d="M74.75,107.07,9,140.44s-4.67,2.12-4.1,6.73a7.69,7.69,0,0,0,5,6L70,183.29a13.4,13.4,0,0,0,8.26,0c4.42-1.47,62.8-30.92,62.8-30.92s5.56-5.47,0-11.53Z"/><path class="cls-4" d="M62.91,66.42l-8.28-4.18,14.26-7a12.19,12.19,0,0,1,11,.44c6.13,3.13,62.05,30.9,62.05,30.9a8.41,8.41,0,0,1,4.21,6.51c.25,4.4-4.92,7-4.92,7L78.65,131.65s-6.25,2.68-11.17,0S2.31,98.59,2.31,98.59l-.19-8.21L70.86,124.5a10.49,10.49,0,0,0,6.32-.25c3.58-1.24,59.94-29.68,59.94-29.68a1.45,1.45,0,0,0,.25-2,1,1,0,0,0-.25-.25c-1.36-1.09-60.7-30.06-60.7-30.06S73.54,60.42,71,62,62.91,66.42,62.91,66.42Z"/><path class="cls-5" d="M146.16,44.59V36.42S96,10.86,79.08,3A10.11,10.11,0,0,0,70.2,3C64.61,5.71,6.68,34.54,6.68,34.54S1.36,37.1,2.22,41.86a8.43,8.43,0,0,0,4.61,6.3L70.37,79.82s5.29,1.53,8.37,0l14.34-7.15v-8L77,72.8a16.21,16.21,0,0,1-4.6.51C70.37,73.18,10.76,42,10.76,42s-.77-1.19,1.11-2.21S70.07,11,70.07,11a9.71,9.71,0,0,1,8.63-.26C83.36,12.91,146.16,44.59,146.16,44.59Z"/></svg>