<?xml version="1.0" encoding="utf-8"?>
<!-- Svg Vector Icons : http://www.onlinewebfonts.com/icon -->
<!DOCTYPE svg PUBLIC "-//W3C//DTD SVG 1.1//EN" "http://www.w3.org/Graphics/SVG/1.1/DTD/svg11.dtd">
<svg version="1.1" xmlns="http://www.w3.org/2000/svg" xmlns:xlink="http://www.w3.org/1999/xlink" x="0px" y="0px" viewBox="0 0 256 256" enable-background="new 0 0 256 256" xml:space="preserve">
<metadata> Svg Vector Icons : http://www.onlinewebfonts.com/icon </metadata>
<g><g><path fill="#000000" d="M192,120.4c-29.8,0-54,24.2-54,54c0,29.8,24.2,54,54,54s54-24.2,54-54C246,144.5,221.8,120.4,192,120.4z M192,210.4c-19.9,0-36-16.1-36-36c0-19.9,16.1-36,36-36c19.9,0,36,16.1,36,36C228,194.2,211.9,210.4,192,210.4z"/><path fill="#000000" d="M211,174.9h-14.2v-15.5c0-3.7-3-6.7-6.7-6.7c-3.7,0-6.7,3-6.7,6.7v20.7c0,0.5,0,0.9,0.1,1.3c0,0,0,0.1,0,0.1c0,3.7,3,6.7,6.7,6.7H211c3.7,0,6.7-3,6.7-6.7C217.7,177.9,214.7,174.9,211,174.9z"/><path fill="#000000" d="M138.1,178.3H27v-41.5h27.1l22.4-21.8c1.8,0.9,3.8,1.4,5.9,1.4c1.5,0,2.9-0.3,4.2-0.7l14.2,19.5c-0.1,0.7-0.2,1.5-0.2,2.2c0,7.1,5.8,12.9,12.9,12.9c7,0,12.7-5.6,12.9-12.6l38-37.6c3,1.6,6.5,2.6,10.3,2.6c12,0,21.8-9.8,21.8-21.8c0-12-9.8-21.8-21.8-21.8s-21.8,9.8-21.8,21.8c0,3.6,0.9,7.1,2.5,10L119.9,126c-1.9-1.1-4-1.6-6.3-1.6c-1.4,0-2.8,0.2-4,0.7l-14.3-19.6c0.1-0.6,0.2-1.3,0.2-2c0-7.1-5.8-12.9-12.9-12.9s-12.9,5.8-12.9,12.9c0,0.1,0,0.2,0,0.2l-20.7,20.1H27.1V49.9c0-2.7,2.2-4.8,4.8-4.8h191.7c2.7,0,4.8,2.2,4.8,4.8v84.7c9.1,8.4,15.4,19.8,17.1,32.8V35.6c0-4.4-3.6-8-8-8H18c-4.4,0-8,3.6-8,8V132v5.1v51.8h0.1c0.3,3.5,3.2,6.2,6.7,6.2c0.1,0,0.3,0,0.4,0v0h81.7h40.3h3C139.9,189.8,138.5,184.2,138.1,178.3z M176.9,69.7c5.1,0,9.2,4.1,9.2,9.2c0,5.1-4.1,9.2-9.2,9.2c-5.1,0-9.2-4.1-9.2-9.2C167.6,73.8,171.8,69.7,176.9,69.7z"/></g></g>
</svg>